<svg xmlns="http://www.w3.org/2000/svg" width="940" height="600" viewBox="0 0 940 600" font-family="Segoe UI, Helvetica, Arial, sans-serif">
<rect width="100%" height="100%" fill="#0e1320"/>
<defs><marker id="arrow" markerWidth="10" markerHeight="10" refX="8" refY="3" orient="auto" markerUnits="strokeWidth"><path d="M0,0 L8,3 L0,6 Z" fill="#9fb3d1"/></marker></defs>
<text x="470" y="585" fill="#5e6b85" font-size="12" text-anchor="middle">Ulysse = masque visuel au-dessus de Hermes Agent - zero friction, rien reinvente</text>
<line x1="470.0" y1="76" x2="470.0" y2="120" stroke="#9fb3d1" stroke-width="2" marker-end="url(#arrow)"/>
<line x1="470.0" y1="176" x2="165.0" y2="230" stroke="#9fb3d1" stroke-width="2" marker-end="url(#arrow)"/>
<line x1="470.0" y1="176" x2="470.0" y2="230" stroke="#9fb3d1" stroke-width="2" marker-end="url(#arrow)"/>
<line x1="470.0" y1="176" x2="775.0" y2="230" stroke="#9fb3d1" stroke-width="2" marker-end="url(#arrow)"/>
<line x1="775.0" y1="286" x2="470.0" y2="340" stroke="#9fb3d1" stroke-width="2" marker-end="url(#arrow)"/>
<line x1="470.0" y1="418" x2="370.0" y2="470" stroke="#9fb3d1" stroke-width="2" marker-end="url(#arrow)"/>
<line x1="470.0" y1="176" x2="785.0" y2="478" stroke="#9fb3d1" stroke-width="2" marker-end="url(#arrow)"/>
<line x1="595" y1="258.0" x2="720" y2="275.0" stroke="#9fb3d1" stroke-width="2" marker-end="url(#arrow)"/>
<g><rect x="370" y="20" width="200" height="56" rx="10" ry="10" fill="#2a3550" stroke="#5b8def" stroke-width="2"/>
<text x="470.0" y="44" fill="#e6edf3" font-size="13" text-anchor="middle" style="font-weight:700;">Utilisateur final</text>
<text x="470.0" y="62" fill="#e6edf3" font-size="13" text-anchor="middle" style="">(double-clic bureau)</text>
</g>
<g><rect x="300" y="120" width="340" height="56" rx="10" ry="10" fill="#23314d" stroke="#5b8def" stroke-width="2"/>
<text x="470.0" y="144" fill="#e6edf3" font-size="13" text-anchor="middle" style="font-weight:700;">Interface web Ulysse</text>
<text x="470.0" y="162" fill="#e6edf3" font-size="13" text-anchor="middle" style="">HTML Material 3 (localhost)</text>
</g>
<g><rect x="40" y="230" width="250" height="56" rx="10" ry="10" fill="#1f3a2e" stroke="#46c98b" stroke-width="2"/>
<text x="165.0" y="254" fill="#e6edf3" font-size="13" text-anchor="middle" style="font-weight:700;">hermes proxy :8645</text>
<text x="165.0" y="272" fill="#e6edf3" font-size="13" text-anchor="middle" style="">API chat - Discussion [A]</text>
</g>
<g><rect x="345" y="230" width="250" height="56" rx="10" ry="10" fill="#3a2f1f" stroke="#e0a44b" stroke-width="2"/>
<text x="470.0" y="254" fill="#e6edf3" font-size="13" text-anchor="middle" style="font-weight:700;">hermes gateway :8644</text>
<text x="470.0" y="272" fill="#e6edf3" font-size="13" text-anchor="middle" style="">webhooks + canaux [B]</text>
</g>
<g><rect x="650" y="230" width="250" height="56" rx="10" ry="10" fill="#3a1f2e" stroke="#e06a9b" stroke-width="2"/>
<text x="775.0" y="254" fill="#e6edf3" font-size="13" text-anchor="middle" style="font-weight:700;">hermes serve :9119</text>
<text x="775.0" y="272" fill="#e6edf3" font-size="13" text-anchor="middle" style="">backend Cowork/Studio/FS/MCP [C]</text>
</g>
<g><rect x="300" y="340" width="340" height="78" rx="10" ry="10" fill="#222a3d" stroke="#8a93ff" stroke-width="2"/>
<text x="470.0" y="364" fill="#e6edf3" font-size="13" text-anchor="middle" style="font-weight:700;">Profil $HERMES_HOME</text>
<text x="470.0" y="382" fill="#e6edf3" font-size="13" text-anchor="middle" style="">config . env user/soul/MEMORY</text>
<text x="470.0" y="400" fill="#e6edf3" font-size="13" text-anchor="middle" style="">roles/ agents/ projects/</text>
</g>
<g><rect x="120" y="470" width="500" height="84" rx="10" ry="10" fill="#1c2740" stroke="#8a93ff" stroke-width="2"/>
<text x="370.0" y="494" fill="#e6edf3" font-size="13" text-anchor="middle" style="font-weight:700;">Vestiaire - 6 roles (pas des agents)</text>
<text x="370.0" y="512" fill="#e6edf3" font-size="13" text-anchor="middle" style="">Orchestrateur - Generaliste - Raisonnement</text>
<text x="370.0" y="530" fill="#e6edf3" font-size="13" text-anchor="middle" style="">Codage - Appel d'outil - Garde-fou (+3 fantomes)</text>
</g>
<g><rect x="660" y="478" width="250" height="70" rx="10" ry="10" fill="#2a2440" stroke="#b58aef" stroke-width="2"/>
<text x="785.0" y="502" fill="#e6edf3" font-size="13" text-anchor="middle" style="font-weight:700;">Permissions (2 couches)</text>
<text x="785.0" y="520" fill="#e6edf3" font-size="13" text-anchor="middle" style="">Discussion/Cowork x 4 sous-modes</text>
<text x="785.0" y="538" fill="#e6edf3" font-size="13" text-anchor="middle" style="">Auto - Accept-edit - Manuel - Plan</text>
</g>
<g><rect x="720" y="250" width="200" height="50" rx="10" ry="10" fill="#1f2f3a" stroke="#4bc4e0" stroke-width="2"/>
<text x="820.0" y="274" fill="#e6edf3" font-size="13" text-anchor="middle" style="font-weight:700;">Telegram</text>
<text x="820.0" y="292" fill="#e6edf3" font-size="13" text-anchor="middle" style="">(piloter sans ouvrir l'UI)</text>
</g>
</svg>